<svg width="36" height="36" viewBox="0 0 36 36" fill="none" xmlns="http://www.w3.org/2000/svg">
<path d="M19.918 31.9855C19.5848 32.2567 19.2499 32.4698 18.9129 32.6307C18.684 32.6552 18.4536 32.6731 18.2219 32.6867V30.0007C17.668 29.5473 17.1109 29.0765 16.552 28.5927V32.6872C16.3204 32.6731 16.0899 32.6551 15.8616 32.6306C15.5246 32.4697 15.1892 32.2566 14.8559 31.9854C13.7698 31.1014 12.7533 29.6093 11.9737 27.6887H15.5235C14.9185 27.1478 14.3129 26.5906 13.7073 26.0188H11.3899C11.1131 25.0984 10.8904 24.1058 10.7207 23.0648C10.0613 22.3826 9.42093 21.6987 8.79902 21.016C8.93873 22.7935 9.22518 24.4798 9.65191 26.0188H5.38626C4.19193 24.0885 3.45154 21.851 3.31127 19.4472H7.40627C6.92245 18.8883 6.45164 18.3311 5.99882 17.7772H3.31134C3.36893 16.7922 3.53261 15.8375 3.78103 14.9183C3.21403 14.1448 2.68232 13.3827 2.19204 12.6362C1.46304 14.4878 1.05811 16.5024 1.05811 18.6127C1.0586 27.6311 8.368 34.9399 17.3865 34.9405C19.4962 34.9405 21.5109 34.5355 23.3618 33.8071C22.3676 33.1531 21.3445 32.4263 20.304 31.6387C20.1762 31.762 20.048 31.8795 19.918 31.9855ZM7.41506 28.5842C7.1291 28.2982 6.85727 27.9981 6.5969 27.6888H10.1939C10.4619 28.4194 10.7566 29.1152 11.0865 29.7545C11.4752 30.5058 11.9058 31.1891 12.376 31.7947C10.4983 31.0809 8.8121 29.9801 7.41506 28.5842Z" fill="white"/>
<path d="M5.51514 7.40732C5.87176 8.04604 6.27725 8.71148 6.7236 9.39688C6.94649 9.13813 7.17261 8.88262 7.41449 8.64074C8.81427 7.24202 10.5044 6.13903 12.3863 5.42529C11.5116 6.54839 10.7761 7.94163 10.1907 9.53554H6.81226C7.16987 10.0802 7.55532 10.638 7.96356 11.2055H9.65584C9.502 11.7594 9.36988 12.3357 9.25084 12.9249C9.69824 13.5 10.1663 14.0816 10.6534 14.6677C10.829 13.4402 11.0757 12.2741 11.3976 11.2054H16.5515V17.777H13.379C13.895 18.3353 14.4233 18.8925 14.9642 19.447H16.5515V21.0344C17.106 21.5747 17.6632 22.1042 18.2215 22.6195V19.447H24.3915C24.323 21.8443 23.9594 24.0819 23.3761 26.0187H22.1535C22.9559 26.665 23.7479 27.2733 24.5226 27.8381C24.5416 27.787 24.5638 27.7402 24.5829 27.6886H28.1767C27.9158 27.9979 27.6445 28.298 27.3586 28.584C27.1172 28.8253 26.8638 29.0547 26.6051 29.2775C27.2895 29.7233 27.9538 30.1277 28.5909 30.4844C31.7444 27.5076 33.7155 23.2914 33.7155 18.6126C33.7149 9.59425 26.405 2.28438 17.386 2.28381C12.7071 2.28438 8.49196 4.25495 5.51514 7.40732ZM29.3872 26.0188H25.1171C25.6684 24.0319 26.0022 21.8085 26.0668 19.4472H31.4622C31.3219 21.851 30.5815 24.0884 29.3872 26.0188ZM29.3861 11.2055C30.581 13.1358 31.3214 15.3738 31.4621 17.7771H26.0614C25.9961 15.4179 25.6722 13.1912 25.1209 11.2055H29.3861ZM27.3579 8.64074C27.6438 8.9267 27.9151 9.22623 28.1754 9.53554H24.5795C24.3116 8.80548 24.0163 8.10967 23.6869 7.4704C23.2982 6.71967 22.8677 6.03638 22.398 5.43022C24.2751 6.14395 25.9609 7.24533 27.3579 8.64074ZM18.2214 4.5376C18.4535 4.55173 18.6841 4.56966 18.9129 4.59413C19.25 4.75451 19.5842 4.96763 19.9175 5.23883C21.0036 6.12223 22.0197 7.61496 22.7992 9.53547H18.2214V4.5376ZM18.2214 11.2055H23.383C23.9663 13.1418 24.3278 15.382 24.3969 17.7771H18.2214V11.2055ZM14.8554 5.23883C15.1887 4.96756 15.523 4.75452 15.8601 4.59357C16.0889 4.5691 16.3194 4.55117 16.5515 4.53704V9.53554H11.9824C12.1667 9.08048 12.3603 8.6413 12.5695 8.23687C13.2404 6.93651 14.0297 5.91347 14.8554 5.23883Z" fill="white"/>
<path d="M35.3711 29.83C35.0329 28.9183 34.5632 27.9328 33.9881 26.888C33.5951 27.6719 33.1494 28.4258 32.6535 29.1423C32.9053 29.6626 33.1162 30.1518 33.2831 30.603C33.6228 31.5135 33.7761 32.2729 33.7733 32.7807C33.7733 33.0215 33.7413 33.2025 33.6994 33.3243C33.657 33.4466 33.6125 33.5102 33.5614 33.563C33.5097 33.613 33.4466 33.657 33.3238 33.7C33.2025 33.7412 33.0216 33.7733 32.7807 33.7733C32.3012 33.7755 31.5968 33.6401 30.7536 33.3384C29.9088 33.0389 28.9233 32.5806 27.8421 31.9794C24.1352 29.9191 19.3205 26.178 14.5731 21.4274C9.82251 16.6802 6.0814 11.8654 4.02054 8.15798C3.41937 7.07672 2.96163 6.09171 2.66154 5.24691C2.36039 4.4038 2.22448 3.69934 2.22666 3.21981C2.22666 2.97843 2.25928 2.79744 2.30063 2.67672C2.34302 2.55388 2.38711 2.49137 2.43759 2.4392C2.49089 2.38759 2.55389 2.34294 2.6768 2.30062C2.79802 2.25927 2.979 2.22665 3.22095 2.22665C3.72811 2.22398 4.48755 2.37726 5.39648 2.71595C5.8493 2.88336 6.34078 3.09536 6.86377 3.34757C7.58025 2.85179 8.33252 2.40608 9.117 2.01304C8.06998 1.4362 7.0823 0.96602 6.16901 0.627888C5.10026 0.234843 4.12995 0.00323436 3.22102 0C2.78873 0.00063281 2.36686 0.0549842 1.96242 0.19146C1.55911 0.327303 1.17415 0.552373 0.862734 0.865473C0.550687 1.17583 0.32618 1.56023 0.19132 1.96305C0.0549141 2.36692 0.0005625 2.78823 0 3.21988C0.00274219 4.07881 0.209813 4.99147 0.563695 5.99229C0.919195 6.99199 1.42854 8.07705 2.07492 9.24036C4.28955 13.2146 8.12967 18.1305 12.9987 23.0017C17.8701 27.8709 22.786 31.7109 26.7597 33.9256C27.9236 34.5719 29.0086 35.0812 30.0083 35.4368C31.0091 35.7902 31.9218 35.9973 32.7807 36C33.2123 36 33.6336 35.9451 34.0376 35.8092C34.4398 35.6739 34.8242 35.4499 35.1351 35.1378C35.4483 34.8258 35.6733 34.4409 35.8087 34.0386C35.9451 33.6342 35.9995 33.2123 36 32.7808C35.9968 31.8707 35.7652 30.8998 35.3711 29.83Z" fill="white"/>
</svg>
