<svg width="550" height="496" viewBox="0 0 550 496" fill="none" xmlns="http://www.w3.org/2000/svg">
<path d="M245.494 275.41L236.367 262.991C234.53 260.491 234.004 256.936 235.009 253.807L249.527 208.603C250.532 205.474 250.006 201.919 248.169 199.419L239.042 187M221.245 242.415L206.695 222.618" stroke="#00FFF0" stroke-width="14" stroke-linecap="round" stroke-linejoin="round"/>
<path d="M164.649 368C164.358 366.766 163.305 366.053 162.297 366.409C161.288 366.765 160.706 368.054 160.997 369.289C161.288 370.523 162.341 371.235 163.35 370.879C164.358 370.524 164.94 369.234 164.649 368Z" stroke="#00FFF0" stroke-width="7"/>
<path d="M152.484 354.136C152.775 355.371 153.828 356.083 154.836 355.727C155.845 355.371 156.427 354.082 156.136 352.848C155.845 351.613 154.792 350.901 153.783 351.257C152.775 351.613 152.193 352.902 152.484 354.136Z" stroke="#00FFF0" stroke-width="7"/>
<path d="M155.486 354.287L157.25 355.48C158.447 356.289 159.045 356.694 159.309 357.341C159.412 357.595 159.477 357.87 159.5 358.152C159.558 358.872 159.227 359.604 158.567 361.068C157.906 362.533 157.575 363.265 157.633 363.985C157.656 364.267 157.721 364.542 157.824 364.795C158.088 365.443 158.686 365.847 159.883 366.656L161.647 367.849" stroke="#00FFF0" stroke-width="7"/>
<path d="M192.924 14.7285C191.876 14.6812 190.994 15.6835 190.955 16.9674C190.917 18.2512 191.736 19.3303 192.784 19.3776C193.833 19.425 194.715 18.4226 194.754 17.1388C194.792 15.855 193.973 14.7758 192.924 14.7285Z" stroke="#00FFF0" stroke-width="7"/>
<path d="M178.366 24.5463C179.415 24.5936 180.297 23.5912 180.335 22.3074C180.374 21.0236 179.555 19.9445 178.506 19.8971C177.457 19.8498 176.576 20.8522 176.537 22.136C176.498 23.4198 177.317 24.4989 178.366 24.5463Z" stroke="#00FFF0" stroke-width="7"/>
<path d="M179.421 21.1023L180.897 19.4231C181.899 18.2846 182.399 17.7153 182.984 17.6104C183.213 17.5693 183.447 17.5799 183.673 17.6415C184.25 17.7988 184.715 18.4117 185.645 19.6374C186.575 20.8631 187.04 21.476 187.617 21.6333C187.843 21.6949 188.077 21.7055 188.306 21.6644C188.891 21.5595 189.392 20.9902 190.393 19.8517L191.87 18.1725" stroke="#00FFF0" stroke-width="7"/>
<path d="M339.802 328.51L349.945 334.882C350.316 335.115 350.561 335.548 350.619 336.053L352.137 349.546C352.257 350.648 351.413 351.578 350.539 351.255C349.485 350.854 348.465 349.865 347.586 348.269L343.078 340.011L338.826 332.227C338.497 331.621 338.237 331.022 338.038 330.445C337.597 329.125 338.767 327.86 339.802 328.51Z" fill="#00FFF0"/>
<path d="M361.822 326.448L351.982 332.805C351.612 333.042 351.182 333.05 350.811 332.817L340.668 326.445C339.633 325.795 339.791 323.894 340.924 323.562C341.423 323.423 341.972 323.334 342.566 323.307L350.212 322.997L358.321 322.666C359.894 322.61 361.145 323.048 362.025 323.863C362.749 324.543 362.624 325.925 361.822 326.448Z" fill="#00FFF0"/>
<path d="M353.485 347.522L352.424 336.16C352.367 335.55 352.679 334.807 353.116 334.508L361.277 328.94C363.443 327.466 364.289 328.466 363.157 331.164L356.052 348.109C354.915 350.786 353.758 350.529 353.485 347.522Z" fill="#00FFF0"/>
<path fill-rule="evenodd" clip-rule="evenodd" d="M68.9818 364.25C72.6146 372.88 76.3644 381.44 80.0274 390.05C87.9845 390.258 95.9411 390.454 103.907 390.686C100.162 382.09 96.474 373.46 92.74 364.856C84.823 364.636 76.9011 364.506 68.9818 364.25ZM46.7972 338.939C66.2324 339.411 85.6581 339.902 105.084 340.418C114.147 361.447 123.244 382.461 132.269 403.512C121.864 424.078 111.474 444.656 101.116 465.266C81.6926 464.837 62.2871 464.199 42.8707 463.69C33.8092 442.551 24.59 421.523 15.6163 400.331C23.3447 400.562 31.0717 400.783 38.7992 401.055C44.2645 413.787 49.7722 426.502 55.196 439.263C66.9561 439.425 78.6966 439.922 90.4534 439.997C94.535 431.706 98.7599 423.521 102.881 415.26C91.158 415.024 79.4241 414.756 67.6991 414.483C58.5831 393.533 49.5598 372.507 40.4451 351.541C42.5663 347.337 44.689 343.144 46.7972 338.939Z" fill="#00FFF0"/>
<path d="M490.151 338L498.218 351.474C499.841 354.186 500.074 357.788 498.818 360.778L480.679 403.978C479.424 406.969 479.656 410.57 481.28 413.282L489.347 426.756M511.583 373.798L524.442 395.277" stroke="#00FFF0" stroke-width="14" stroke-linecap="round" stroke-linejoin="round"/>
<path d="M49.3597 7.16748C49.5481 8.43131 50.5379 9.26888 51.5704 9.03825C52.6029 8.80763 53.2872 7.59613 53.0988 6.33231C52.9104 5.06848 51.9206 4.23091 50.8881 4.46154C49.8556 4.69216 49.1713 5.90366 49.3597 7.16748Z" stroke="#00FFF0" stroke-width="7"/>
<path d="M60.3312 22.451C60.1428 21.1872 59.153 20.3497 58.1205 20.5803C57.088 20.8109 56.4037 22.0224 56.5921 23.2862C56.7806 24.55 57.7703 25.3876 58.8028 25.157C59.8353 24.9264 60.5196 23.7149 60.3312 22.451Z" stroke="#00FFF0" stroke-width="7"/>
<path d="M57.3562 21.9332L55.6982 20.5301C54.574 19.5788 54.0119 19.1031 53.8021 18.4269C53.7199 18.1616 53.678 17.8804 53.6784 17.5967C53.6795 16.8733 54.0681 16.1853 54.8453 14.8092C55.6226 13.4331 56.0112 12.7452 56.0123 12.0218C56.0127 11.7382 55.9707 11.4568 55.8885 11.1916C55.6787 10.5153 55.1167 10.0397 53.9924 9.08835L52.3344 7.68527" stroke="#00FFF0" stroke-width="7"/>
<path d="M537.982 218.34C538.746 217.613 538.609 216.312 537.676 215.434C536.744 214.556 535.369 214.434 534.605 215.161C533.841 215.888 533.978 217.189 534.91 218.066C535.843 218.944 537.218 219.067 537.982 218.34Z" stroke="#00FFF0" stroke-width="7"/>
<path d="M540.756 201.316C539.992 202.043 540.129 203.344 541.061 204.222C541.994 205.099 543.369 205.222 544.133 204.495C544.897 203.768 544.76 202.467 543.827 201.589C542.895 200.711 541.52 200.589 540.756 201.316Z" stroke="#00FFF0" stroke-width="7"/>
<path d="M542.597 204.358L542.827 206.537C542.982 208.015 543.06 208.754 542.732 209.246C542.603 209.439 542.433 209.601 542.23 209.723C541.712 210.036 540.931 209.967 539.369 209.828C537.807 209.689 537.026 209.62 536.508 209.932C536.305 210.055 536.135 210.217 536.006 210.41C535.678 210.902 535.756 211.641 535.911 213.118L536.141 215.298" stroke="#00FFF0" stroke-width="7"/>
<path d="M521.561 43.489L511.989 35.9066C511.639 35.6292 511.43 35.1692 511.414 34.6588L511.007 21.0483C510.977 19.9373 511.893 19.1152 512.736 19.5431C513.752 20.0712 514.686 21.1801 515.431 22.8757L519.241 31.6442L522.836 39.91C523.113 40.5534 523.323 41.1808 523.474 41.7791C523.805 43.1469 522.537 44.2624 521.561 43.489Z" fill="#00FFF0"/>
<path d="M499.483 42.8447L509.793 37.7246C510.18 37.5336 510.608 37.5779 510.959 37.8554L520.531 45.4378C521.507 46.2111 521.195 48.0832 520.04 48.2741C519.532 48.3512 518.979 48.3733 518.386 48.3274L510.753 47.6994L502.657 47.0362C501.088 46.8993 499.879 46.31 499.069 45.3923C498.405 44.6266 498.642 43.2664 499.483 42.8447Z" fill="#00FFF0"/>
<path d="M509.5 22.8968L509.627 34.3318C509.634 34.9454 509.263 35.6468 508.803 35.8905L500.229 40.4324C497.953 41.6334 497.194 40.5345 498.54 37.9886L506.994 21.9987C508.344 19.4742 509.473 19.8716 509.5 22.8968Z" fill="#00FFF0"/>
<path d="M112.256 170.489L102.684 162.907C102.334 162.629 102.126 162.169 102.109 161.659L101.702 148.048C101.672 146.937 102.589 146.115 103.431 146.543C104.447 147.071 105.381 148.18 106.126 149.876L109.937 158.644L113.531 166.91C113.808 167.553 114.019 168.181 114.169 168.779C114.5 170.147 113.233 171.262 112.256 170.489Z" fill="#00FFF0"/>
<path d="M90.1779 169.845L100.489 164.725C100.876 164.534 101.304 164.578 101.654 164.855L111.226 172.438C112.202 173.211 111.89 175.083 110.735 175.274C110.228 175.351 109.674 175.373 109.081 175.327L101.448 174.699L93.352 174.036C91.7832 173.899 90.5741 173.31 89.7645 172.392C89.1003 171.626 89.3376 170.266 90.1779 169.845Z" fill="#00FFF0"/>
<path d="M100.196 149.897L100.323 161.332C100.33 161.945 99.9589 162.647 99.4988 162.89L90.9243 167.432C88.6481 168.633 87.8891 167.534 89.2352 164.989L97.6893 148.999C99.0391 146.474 100.169 146.872 100.196 149.897Z" fill="#00FFF0"/>
<path fill-rule="evenodd" clip-rule="evenodd" d="M362.868 143.124C359.959 134.092 356.927 125.116 353.986 116.1C346.086 114.919 338.185 113.751 330.278 112.545C333.302 121.557 336.266 130.594 339.278 139.612C347.138 140.801 355.009 141.9 362.868 143.124ZM382.873 171.024C363.574 168.175 344.286 165.309 324.999 162.416C317.7 140.384 310.365 118.362 303.106 96.3114C315.139 77.1217 327.159 57.9186 339.149 38.6801C358.44 41.4846 377.696 44.4954 396.973 47.3789C404.262 69.521 411.717 91.5722 418.914 113.756C411.243 112.58 403.573 111.415 395.907 110.198C391.509 96.8605 387.068 83.5349 382.714 70.1747C371.026 68.5735 359.385 66.6417 347.693 65.1282C342.955 72.8777 338.082 80.5044 333.307 88.2195C344.952 89.8897 356.605 91.593 368.249 93.2991C375.607 115.26 382.867 137.285 390.223 159.262C387.769 163.185 385.315 167.098 382.873 171.024Z" fill="#00FFF0"/>
</svg>
