<svg width="35" height="35" viewBox="0 0 35 35" fill="none" xmlns="http://www.w3.org/2000/svg">
<rect x="7" y="7" width="23" height="20" fill="#101010"/>
<path d="M17.5 0C7.83398 0 0 7.83398 0 17.5C0 27.166 7.83398 35 17.5 35C27.166 35 35 27.166 35 17.5C35 7.83398 27.166 0 17.5 0ZM12.6055 24.8213H9.19434V13.9043H12.6055V24.8213ZM10.8076 12.5371H10.7803C9.54297 12.5371 8.74316 11.7031 8.74316 10.6436C8.74316 9.56348 9.57031 8.75 10.8281 8.75C12.0859 8.75 12.8584 9.56348 12.8857 10.6436C12.8926 11.6963 12.0928 12.5371 10.8076 12.5371ZM26.25 24.8213H22.3809V19.1748C22.3809 17.6982 21.7793 16.6865 20.4463 16.6865C19.4277 16.6865 18.8604 17.3701 18.6006 18.0264C18.5049 18.2588 18.5186 18.5869 18.5186 18.9219V24.8213H14.6836C14.6836 24.8213 14.7314 14.8135 14.6836 13.9043H18.5186V15.6201C18.7441 14.8682 19.9678 13.8018 21.9229 13.8018C24.3496 13.8018 26.25 15.374 26.25 18.751V24.8213Z" fill="white"/>
</svg>
